HIERARCHY
ROOT Hips
{
	OFFSET 0.00000 0.00000 0.00000
	CHANNELS 6 Xposition Yposition Zposition Zrotation Yrotation Xrotation 
	JOINT LHipJoint
	{
		OFFSET 0 0 0
		CHANNELS 3 Zrotation Yrotation Xrotation
		JOINT LeftHip
		{
			OFFSET 1.57358 -1.76629 0.73362
			CHANNELS 3 Zrotation Yrotation Xrotation
			JOINT LeftKnee
			{
				OFFSET 2.40600 -6.61045 0.00000
				CHANNELS 3 Zrotation Yrotation Xrotation
				JOINT LeftAnkle
				{
					OFFSET 2.66168 -7.31291 0.00000
					CHANNELS 3 Zrotation Yrotation Xrotation
					JOINT LeftToe
					{
						OFFSET 0.20870 -0.57341 2.12506
						CHANNELS 3 Zrotation Yrotation Xrotation
						End Site
						{
							OFFSET 0.00000 -0.00000 1.10557
						}
					}
				}
			}
		}
	}
	JOINT RHipJoint
	{
		OFFSET 0 0 0
		CHANNELS 3 Zrotation Yrotation Xrotation
		JOINT RightHip
		{
			OFFSET -1.49299 -1.76629 0.73362
			CHANNELS 3 Zrotation Yrotation Xrotation
			JOINT RightKnee
			{
				OFFSET -2.43663 -6.69460 0.00000
				CHANNELS 3 Zrotation Yrotation Xrotation
				JOINT RightAnkle
				{
					OFFSET -2.62959 -7.22474 0.00000
					CHANNELS 3 Zrotation Yrotation Xrotation
					JOINT RightToe
					{
						OFFSET -0.25784 -0.70841 2.21862
						CHANNELS 3 Zrotation Yrotation Xrotation
						End Site
						{
							OFFSET -0.00000 -0.00000 1.16452
						}
					}
				}
			}
		}
	}
	JOINT lowerback
	{
		OFFSET 0 0 0
		CHANNELS 3 Zrotation Yrotation Xrotation
		JOINT Chest
		{
			OFFSET -0.00034 2.12399 -0.25450
			CHANNELS 3 Zrotation Yrotation Xrotation
			JOINT Chest2
			{
				OFFSET 0.05594 2.14379 -0.03318
				CHANNELS 3 Zrotation Yrotation Xrotation
				JOINT lowerneck
				{
					OFFSET 0 0 0
					CHANNELS 3 Zrotation Yrotation Xrotation
					JOINT Neck
					{
						OFFSET -0.09835 1.62725 0.24211
						CHANNELS 3 Zrotation Yrotation Xrotation
						JOINT Head
						{
							OFFSET 0.10849 1.66041 -0.22648
							CHANNELS 3 Zrotation Yrotation Xrotation
							End Site
							{
								OFFSET 0.04385 1.68267 -0.10541
							}
						}
					}
				}
				JOINT LeftCollar
				{
					OFFSET 0 0 0
					CHANNELS 3 Zrotation Yrotation Xrotation
					JOINT LeftShoulder
					{
						OFFSET 3.29108 0.79398 -0.68179
CHANNELS 3 Zrotation Xrotation Yrotation
						JOINT LeftElbow
						{
OFFSET 0 -5.153100 -0.000000
CHANNELS 3 Zrotation Xrotation Yrotation
							JOINT LeftWrist
							{
OFFSET 0 -3.751380 -0.000000
CHANNELS 3 Zrotation Xrotation Yrotation
								JOINT lhand
								{
									OFFSET 0 0 0
CHANNELS 3 Zrotation Xrotation Yrotation
									JOINT LFingers
									{
OFFSET 0 -0.529170 0.000000
CHANNELS 3 Zrotation Xrotation Yrotation
										End Site
										{
OFFSET 0 -0.426630 0.000000
										}
									}
								}
								JOINT LThumb
								{
OFFSET 0 0.000000 0.000000
CHANNELS 3 Zrotation Xrotation Yrotation
									End Site
									{
OFFSET 0 -0.433150 0.433150
									}
								}
							}
						}
					}
				}
				JOINT RightCollar
				{
					OFFSET 0 0 0
					CHANNELS 3 Zrotation Yrotation Xrotation
					JOINT RightShoulder
					{
						OFFSET -3.07414 1.06285 -0.44338
CHANNELS 3 Zrotation Xrotation Yrotation
						JOINT RightElbow
						{
OFFSET 0 -5.296130 0.000000
CHANNELS 3 Zrotation Xrotation Yrotation
							JOINT RightWrist
							{
OFFSET 0 -3.761440 -0.000000
CHANNELS 3 Zrotation Xrotation Yrotation
								JOINT rhand
								{
									OFFSET 0 0 0
CHANNELS 3 Zrotation Xrotation Yrotation
									JOINT RFingers
									{
OFFSET 0 -0.747320 0.000000
CHANNELS 3 Zrotation Xrotation Yrotation
										End Site
										{
OFFSET 0 -0.602510 0.000000
										}
									}
								}
								JOINT RThumb
								{
OFFSET 0 0.000000 0.000000
CHANNELS 3 Zrotation Xrotation Yrotation
									End Site
									{
OFFSET 0 -0.611710 0.611710
									}
								}
							}
						}
					}
				}
			}
		}
	}
}
MOTION
Frames: 10
Frame Time: 0.008333333333333333
0.661189 17.246249 3.464113 -5.671557 -5.020503 -1.855843 0.000000 0.000000 0.000000 -12.879821 -7.308338 -30.816943 5.919431 14.342454 44.643411 0.181221 4.091514 -10.612277 0.132384 -2.301536 -6.341685 0.000000 0.000000 0.000000 32.577193 6.357470 5.701943 -1.480105 -7.686072 21.764932 -0.824230 -1.311149 -17.673053 -0.043612 1.345476 -3.699950 4.996763 1.262978 6.127955 3.762998 2.128126 0.616119 0.907311 1.019481 -2.764282 -9.335420 -3.290727 -15.583642 4.720007 -3.320576 22.098761 2.779307 -1.793162 9.831379 0.000000 0.000000 0.000000 -1.042805 6.734375 -23.359906 13.020375 -21.317047 2.460700 12.747236 16.469105 -26.142804 0.000000 0.000000 0.000000 -7.125000 0.000000 0.000000 -18.465556 55.724310 4.981511 0.000000 0.000000 0.000000 -6.949513 -4.513367 19.874511 -20.471361 -31.205471 -5.773838 -15.677897 -2.951460 -12.546911 0.000000 0.000000 0.000000 7.125000 0.000000 0.000000 8.025417 17.043639 5.374120
0.657766 17.234346 3.578340 -5.620472 -5.044309 -1.746930 0.000000 0.000000 0.000000 -12.898263 -7.549613 -30.889228 5.548093 13.968562 43.126234 0.169063 4.431741 -10.676031 0.196751 -2.822809 -7.787854 0.000000 0.000000 0.000000 32.562378 6.253409 6.233228 -1.431114 -7.563417 21.395995 -0.836491 -1.464047 -17.866359 -0.049436 1.432627 -3.940050 4.922690 1.289133 6.024865 3.741593 2.149377 0.615557 0.927132 1.031844 -2.708446 -9.276059 -3.295580 -15.559325 4.612422 -3.315927 21.982082 2.730521 -1.796687 9.782337 0.000000 0.000000 0.000000 -1.156214 6.892126 -23.094519 12.994526 -21.279142 2.451301 12.687109 16.655515 -26.129011 0.000000 0.000000 0.000000 -7.125000 0.000000 0.000000 -18.517867 55.699329 4.984934 0.000000 0.000000 0.000000 -7.195539 -4.896301 20.263933 -20.681883 -31.454613 -5.883313 -15.590490 -3.084179 -12.620934 0.000000 0.000000 0.000000 7.125000 0.000000 0.000000 8.085851 16.974316 5.427759
0.656255 17.224438 3.693924 -5.618051 -5.113009 -1.627513 0.000000 0.000000 0.000000 -12.841603 -7.807516 -30.942863 5.181078 13.576102 41.581592 0.155186 4.770527 -10.719583 0.252638 -3.223115 -8.901524 0.000000 0.000000 0.000000 32.555572 6.082312 6.739267 -1.380156 -7.432863 21.004749 -0.854792 -1.455988 -18.049467 -0.054760 1.508693 -4.149666 4.926129 1.322716 5.959991 3.717556 2.189529 0.597869 0.898566 1.051855 -2.688470 -9.224125 -3.307832 -15.573834 4.548429 -3.327601 21.902650 2.696505 -1.803593 9.755798 0.000000 0.000000 0.000000 -1.249115 6.998692 -22.803026 12.898148 -21.137425 2.416654 12.541987 16.836991 -26.339304 0.000000 0.000000 0.000000 -7.125000 0.000000 0.000000 -18.791299 55.869281 5.143992 0.000000 0.000000 0.000000 -7.427487 -5.253296 20.651665 -20.872535 -31.678897 -5.983061 -15.598693 -3.221415 -12.681571 0.000000 0.000000 0.000000 7.125000 0.000000 0.000000 8.080161 16.911617 5.434896
0.656358 17.216214 3.810653 -5.656671 -5.219573 -1.499238 0.000000 0.000000 0.000000 -12.721604 -8.079442 -30.980768 4.817710 13.167983 40.013789 0.139861 5.108097 -10.746096 0.301373 -3.521402 -9.734774 0.000000 0.000000 0.000000 32.555521 5.854676 7.224014 -1.327538 -7.295649 20.594688 -0.878189 -1.312184 -18.223974 -0.059665 1.575410 -4.333573 4.994941 1.362562 5.927348 3.691298 2.245620 0.565736 0.829192 1.078317 -2.698738 -9.178455 -3.326325 -15.621088 4.521201 -3.353041 21.854630 2.674947 -1.813350 9.748238 0.000000 0.000000 0.000000 -1.324721 7.062088 -22.489517 12.742287 -20.908155 2.360716 12.325181 17.014308 -26.738585 0.000000 0.000000 0.000000 -7.125000 0.000000 0.000000 -19.251218 56.203633 5.434309 0.000000 0.000000 0.000000 -7.647562 -5.588415 21.037970 -21.046428 -31.882216 -6.074606 -15.687530 -3.362461 -12.730919 0.000000 0.000000 0.000000 7.125000 0.000000 0.000000 8.018706 16.854504 5.402815
0.655563 17.209393 3.928279 -5.646403 -5.260094 -1.345144 0.000000 0.000000 0.000000 -12.629635 -8.450819 -31.026503 4.466294 12.746386 38.442072 0.125103 5.368868 -10.715323 0.321182 -3.642809 -10.073906 0.000000 0.000000 0.000000 32.493283 5.599309 7.670003 -1.272500 -7.148064 20.155432 -0.899883 -1.082555 -18.346424 -0.058891 1.565238 -4.305548 4.994065 1.389320 5.849462 3.661364 2.277506 0.513343 0.797651 1.093454 -2.707542 -9.192162 -3.332685 -15.675095 4.552633 -3.360940 21.869663 2.687127 -1.814173 9.765062 0.000000 0.000000 0.000000 -1.411683 7.145955 -22.202245 12.574174 -20.659670 2.301192 12.336743 17.200320 -27.079893 0.000000 0.000000 0.000000 -7.125000 0.000000 0.000000 -19.450378 56.528691 5.646153 0.000000 0.000000 0.000000 -7.849617 -5.856655 21.367767 -21.272169 -32.143687 -6.194569 -15.795821 -3.474879 -12.725491 0.000000 0.000000 0.000000 7.125000 0.000000 0.000000 7.943773 16.851897 5.351907
0.654133 17.203570 4.046542 -5.601448 -5.253760 -1.172732 0.000000 0.000000 0.000000 -12.557554 -8.892757 -31.077792 4.123360 12.315228 36.867577 0.110748 5.575150 -10.643906 0.320466 -3.638723 -10.062463 0.000000 0.000000 0.000000 32.386924 5.324267 8.088492 -1.215744 -6.993123 19.695462 -0.920368 -0.792033 -18.431941 -0.054089 1.500513 -4.127159 4.943746 1.406791 5.739475 3.628823 2.292219 0.446574 0.792951 1.100555 -2.715307 -9.247998 -3.330437 -15.733894 4.625685 -3.356394 21.929433 2.723245 -1.808655 9.799187 0.000000 0.000000 0.000000 -1.506701 7.244345 -21.933588 12.397369 -20.397552 2.239124 12.510330 17.392503 -27.380070 0.000000 0.000000 0.000000 -7.125000 0.000000 0.000000 -19.464528 56.847156 5.802320 0.000000 0.000000 0.000000 -8.038887 -6.077445 21.657471 -21.534696 -32.446418 -6.334696 -15.917914 -3.566986 -12.681201 0.000000 0.000000 0.000000 7.125000 0.000000 0.000000 7.859278 16.887964 5.287642
0.651613 17.195021 4.164643 -5.606817 -5.230661 -1.015834 0.000000 0.000000 0.000000 -12.392774 -9.396461 -31.096644 3.799593 11.878203 35.316513 0.097194 5.769700 -10.580118 0.317251 -3.620436 -10.011274 0.000000 0.000000 0.000000 32.356275 5.054385 8.533746 -1.161361 -6.839977 19.242767 -0.938610 -0.609757 -18.539061 -0.050954 1.456815 -4.006722 4.905832 1.408556 5.604904 3.641381 2.283276 0.428656 0.831042 1.097494 -2.660536 -9.310662 -3.324696 -15.851479 4.648861 -3.325243 21.931058 2.745290 -1.795445 9.821195 0.000000 0.000000 0.000000 -1.654511 7.236318 -21.587650 12.208479 -20.115977 2.173882 12.711964 17.579749 -27.417792 0.000000 0.000000 0.000000 -7.125000 0.000000 0.000000 -19.283217 56.924291 5.782322 0.000000 0.000000 0.000000 -8.280597 -6.341667 21.973811 -21.867227 -32.824506 -6.514665 -15.879741 -3.600755 -12.181591 0.000000 0.000000 0.000000 7.125000 0.000000 0.000000 7.888028 17.402651 5.215876
0.648445 17.184855 4.282650 -5.642066 -5.197609 -0.868146 0.000000 0.000000 0.000000 -12.172955 -9.936840 -31.096235 3.487208 11.437696 33.779361 0.084117 5.957285 -10.520859 0.312551 -3.593719 -9.936485 0.000000 0.000000 0.000000 32.370579 4.787567 8.994892 -1.108385 -6.687896 18.794393 -0.955519 -0.491750 -18.659009 -0.048808 1.425602 -3.920695 4.875283 1.400995 5.455735 3.680717 2.260288 0.439741 0.894541 1.088401 -2.568634 -9.377379 -3.316880 -16.003969 4.642425 -3.278296 21.898159 2.758981 -1.777668 9.836010 0.000000 0.000000 0.000000 -1.833667 7.165105 -21.195827 12.012414 -19.822851 2.106756 12.930251 17.764064 -27.299684 0.000000 0.000000 0.000000 -7.125000 0.000000 0.000000 -18.985850 56.858136 5.657725 0.000000 0.000000 0.000000 -8.553443 -6.631678 22.305967 -22.241324 -33.247338 -6.718290 -15.746408 -3.599887 -11.411636 0.000000 0.000000 0.000000 7.125000 0.000000 0.000000 7.984017 18.201521 5.139657
0.645141 17.173218 4.399322 -5.718828 -5.263909 -0.736716 0.000000 0.000000 0.000000 -11.840437 -10.518321 -31.036003 3.198676 10.999003 32.288513 0.068267 6.286932 -10.585217 0.284648 -3.423467 -9.460868 0.000000 0.000000 0.000000 32.440188 4.608225 9.490638 -1.060646 -6.546596 18.379352 -0.964865 -0.438050 -18.729504 -0.043890 1.349146 -3.710093 4.900485 1.427727 5.403146 3.697602 2.294624 0.424817 0.896745 1.105387 -2.553632 -9.333177 -3.317312 -16.180312 4.602004 -3.262560 21.883159 2.738003 -1.768959 9.861058 0.000000 0.000000 0.000000 -1.954745 7.212854 -20.826694 11.899068 -19.652998 2.068275 13.062226 17.951733 -27.184518 0.000000 0.000000 0.000000 -7.125000 0.000000 0.000000 -18.779177 56.776477 5.555579 0.000000 0.000000 0.000000 -8.762154 -6.932297 22.573132 -22.416067 -33.444019 -6.813769 -15.747438 -3.490118 -11.133851 0.000000 0.000000 0.000000 7.125000 0.000000 0.000000 7.984283 18.486487 5.090270
0.641770 17.160855 4.515336 -5.816043 -5.379157 -0.613294 0.000000 0.000000 0.000000 -11.452394 -11.120053 -30.946298 2.921897 10.561203 30.820480 0.051051 6.686571 -10.710477 0.245312 -3.182498 -8.787771 0.000000 0.000000 0.000000 32.537046 4.471981 10.003430 -1.015487 -6.410608 17.980735 -0.970484 -0.416032 -18.775634 -0.037607 1.250398 -3.438116 4.953153 1.471354 5.398140 3.703425 2.357203 0.397077 0.868751 1.135220 -2.576518 -9.234327 -3.321807 -16.368407 4.544839 -3.262203 21.876978 2.699945 -1.764719 9.891147 0.000000 0.000000 0.000000 -2.047209 7.319213 -20.468741 11.826476 -19.543880 2.043908 13.151676 18.141055 -27.070803 0.000000 0.000000 0.000000 -7.125000 0.000000 0.000000 -18.617186 56.687180 5.464494 0.000000 0.000000 0.000000 -8.939266 -7.238144 22.808277 -22.492593 -33.529280 -6.855965 -15.814666 -3.326697 -11.098552 0.000000 0.000000 0.000000 7.125000 0.000000 0.000000 7.937386 18.518262 5.054101
